HIERARCHY
ROOT Pelvis
{
	OFFSET 0.000000 0.000000 0.000000
	CHANNELS 6 Xposition Yposition Zposition Zrotation Yrotation Xrotation 
	JOINT Left_hip
	{
		OFFSET 0.067986 -0.089946 -0.007639
		CHANNELS 3 Zrotation Yrotation Xrotation
		JOINT Left_knee
		{
			OFFSET 0.036308 -0.388288 -0.004016
			CHANNELS 3 Zrotation Yrotation Xrotation
			JOINT Left_ankle
			{
				OFFSET -0.012264 -0.413250 -0.042878
				CHANNELS 3 Zrotation Yrotation Xrotation
				JOINT Left_foot
				{
					OFFSET 0.024043 -0.058563 0.118570
					CHANNELS 3 Zrotation Yrotation Xrotation
					End Site
					{
						OFFSET 0.000000 0.000000 0.000000
					}
				}
			}
		}
	}
	JOINT Right_hip
	{
		OFFSET -0.065648 -0.089374 -0.003858
		CHANNELS 3 Zrotation Yrotation Xrotation
		JOINT Right_knee
		{
			OFFSET -0.042132 -0.395021 -0.006361
			CHANNELS 3 Zrotation Yrotation Xrotation
			JOINT Right_ankle
			{
				OFFSET 0.014805 -0.413264 -0.041054
				CHANNELS 3 Zrotation Yrotation Xrotation
				JOINT Right_foot
				{
					OFFSET -0.021758 -0.049013 0.121832
					CHANNELS 3 Zrotation Yrotation Xrotation
					End Site
					{
						OFFSET 0.000000 0.000000 0.000000
					}
				}
			}
		}
	}
	JOINT Spine1
	{
		OFFSET -0.002755 0.104406 -0.022277
		CHANNELS 3 Zrotation Yrotation Xrotation
		JOINT Spine2
		{
			OFFSET 0.004136 0.129393 -0.002186
			CHANNELS 3 Zrotation Yrotation Xrotation
			JOINT Spine3
			{
				OFFSET 0.001906 0.049304 0.025578
				CHANNELS 3 Zrotation Yrotation Xrotation
				JOINT Neck
				{
					OFFSET -0.004620 0.210958 -0.044063
					CHANNELS 3 Zrotation Yrotation Xrotation
					JOINT Head
					{
						OFFSET 0.003833 0.067393 0.052435
						CHANNELS 3 Zrotation Yrotation Xrotation
						End Site
						{
							OFFSET 0.000000 0.000000 0.000000
						}
					}
				}
				JOINT Left_collar
				{
					OFFSET 0.070771 0.116689 -0.037192
					CHANNELS 3 Zrotation Yrotation Xrotation
					JOINT Left_shoulder
					{
						OFFSET 0.080652 0.031596 -0.005617
						CHANNELS 3 Zrotation Yrotation Xrotation
						JOINT Left_elbow
						{
							OFFSET 0.262654 -0.015020 -0.027939
							CHANNELS 3 Zrotation Yrotation Xrotation
							JOINT Left_wrist
							{
								OFFSET 0.250438 0.010062 -0.000990
								CHANNELS 3 Zrotation Yrotation Xrotation
								JOINT Left_palm
								{
									OFFSET 0.081198 -0.010037 -0.013706
									CHANNELS 3 Zrotation Yrotation Xrotation
									End Site
									{
										OFFSET 0.000000 0.000000 0.000000
									}
								}
							}
						}
					}
				}
				JOINT Right_collar
				{
					OFFSET -0.072972 0.115556 -0.040762
					CHANNELS 3 Zrotation Yrotation Xrotation
					JOINT Right_shoulder
					{
						OFFSET -0.082917 0.031841 -0.006673
						CHANNELS 3 Zrotation Yrotation Xrotation
						JOINT Right_elbow
						{
							OFFSET -0.252882 -0.013790 -0.020410
							CHANNELS 3 Zrotation Yrotation Xrotation
							JOINT Right_wrist
							{
								OFFSET -0.255570 0.009163 -0.005138
								CHANNELS 3 Zrotation Yrotation Xrotation
								JOINT Right_palm
								{
									OFFSET -0.080804 -0.007282 -0.010415
									CHANNELS 3 Zrotation Yrotation Xrotation
									End Site
									{
										OFFSET 0.000000 0.000000 0.000000
									}
								}
							}
						}
					}
				}
			}
		}
	}
}
MOTION
Frames: 5
Frame Time: 0.100000
0.000000 0.000000 0.000000 174.497756 24.394775 -19.993046 9.200558 6.674023 10.692220 -4.944966 -16.127939 -1.542276 -8.530640 13.966056 -10.151317 3.928237 0.118988 2.079066 -6.249742 -6.530782 9.767484 5.354127 11.347971 1.137827 14.317880 -12.028470 -10.125730 -10.410004 8.411763 1.065800 1.285696 1.874437 9.983556 0.737672 -3.243123 0.797716 1.312792 0.252520 2.155560 -1.770904 3.730119 -2.372390 0.760439 -2.178654 -8.585433 -2.726980 1.833679 -8.330911 3.019276 5.460245 -14.880295 2.058319 -7.437807 -7.389491 0.065261 -7.375461 24.116640 -7.294999 -1.982023 -14.462836 5.735476 -0.965017 -6.952199 3.558225 -5.968528 -10.865348 -5.533297 9.040705 -9.420384 0.500816 2.675408 15.665021 8.643516 4.600353 -4.902001 
-0.000037 0.000026 -0.000225 174.512111 24.359248 -19.960578 9.184694 6.679980 10.685307 -4.935058 -16.114209 -1.600156 -8.535876 13.969117 -10.115605 3.930587 0.155365 2.049583 -6.269477 -6.536217 9.745647 5.357510 11.343938 1.088287 14.349680 -12.015181 -10.084363 -10.454182 8.424172 1.040473 1.311032 1.887916 10.045006 0.728819 -3.212623 0.772023 1.313458 0.275998 2.163128 -1.781062 3.758032 -2.348874 0.736016 -2.180855 -8.485082 -2.735439 1.836822 -8.351855 2.936875 5.424556 -14.873698 2.050713 -7.456631 -7.309068 0.064602 -7.344648 24.246619 -7.325403 -2.001198 -14.512410 5.749198 -0.928746 -6.971727 3.635743 -5.897799 -10.859923 -5.541570 9.094299 -9.381065 0.485286 2.673650 15.771108 8.679257 4.620911 -4.945554 
-0.000155 0.000089 -0.000469 174.521038 24.419352 -19.982916 9.159496 6.700183 10.691083 -4.953758 -16.099547 -1.617361 -8.535679 13.911267 -10.093598 3.921897 0.180004 2.039161 -6.314333 -6.545799 9.751434 5.364600 11.293783 1.111718 14.315394 -12.000882 -10.094456 -10.398685 8.402128 1.064080 1.361852 1.877074 10.120564 0.708307 -3.203528 0.816574 1.302812 0.279515 2.145416 -1.786591 3.750720 -2.339073 0.710989 -2.153367 -8.451034 -2.829767 1.782940 -8.316201 2.807474 5.401804 -14.820791 2.079408 -7.474448 -7.324597 0.147720 -7.379804 24.169667 -7.331611 -2.001946 -14.506470 5.783119 -0.829092 -6.948733 3.628825 -5.804480 -10.910552 -5.557860 9.070025 -9.493052 0.407351 2.706237 15.772658 8.674077 4.622140 -4.943402 
0.000084 0.000127 -0.000595 174.504224 24.508185 -19.976686 9.150039 6.680452 10.628223 -4.961127 -16.123337 -1.564557 -8.523430 13.880669 -10.096556 3.915947 0.207716 2.021371 -6.307900 -6.551700 9.721664 5.370639 11.260018 1.164753 14.298492 -12.025870 -10.132763 -10.389374 8.406997 1.070578 1.351166 1.881423 10.160933 0.705896 -3.200588 0.828449 1.302658 0.272758 2.158948 -1.757238 3.732652 -2.335435 0.725130 -2.167391 -8.421687 -2.881128 1.772606 -8.313555 2.759265 5.358884 -14.812153 2.133821 -7.580936 -7.305679 0.178867 -7.372704 24.163774 -7.327062 -2.006556 -14.494726 5.809066 -0.821145 -6.945779 3.640338 -5.811656 -10.895541 -5.596806 9.122596 -9.496154 0.377620 2.702480 15.786841 8.671974 4.627107 -4.936640 
0.000239 0.000186 -0.000653 174.502301 24.519928 -19.909936 9.104259 6.608993 10.383654 -5.002695 -16.073564 -1.285342 -8.439375 13.884573 -10.192001 3.883133 0.251735 2.006543 -6.299742 -6.551272 9.618474 5.384230 11.263546 1.191436 14.336215 -12.015299 -10.166913 -10.477641 8.449739 1.064397 1.301565 1.917936 10.204642 0.686735 -3.165040 0.821795 1.299014 0.280609 2.179760 -1.741049 3.733015 -2.375185 0.740577 -2.176383 -8.344968 -2.975157 1.794237 -8.285034 2.689731 5.309281 -14.731618 2.317447 -8.010369 -7.247042 0.295995 -7.403033 24.113676 -7.359029 -2.035218 -14.448930 5.908525 -0.798382 -6.891136 3.668190 -5.847879 -10.849996 -5.605335 9.132294 -9.474480 0.285159 2.753058 15.892665 8.721460 4.650836 -4.967581 
